<svg xmlns="http://www.w3.org/2000/svg" width="121.656" height="110.996" viewBox="0 0 121.656 110.996"><defs><style>.a{fill:#e2561e;}.b{fill:#2b3268;}.c{fill:#e9a205;}.d{fill:#fff;}</style></defs><g transform="translate(-168.707 -287.295)"><g transform="translate(168.707 287.295)"><path class="a" d="M264.339,392.226c7.881,1.427,16.628-3.594,18.717-11.327,1.691-6.26-.8-12.877-3.952-18.543s-7.064-11.075-8.562-17.384c-2.178-9.18,1.036-19.183-2.074-28.09-1.739-4.982-5.3-9.1-9.026-12.834-6.1-6.112-13.037-11.647-21.149-14.614s-17.573-3.093-25.074,1.189S200.852,304.1,203,312.466c2.47,9.618,12.324,14.969,20.274,20.918a74.885,74.885,0,0,1,24.311,31.032C252.01,375.262,248.525,389.362,264.339,392.226Z" transform="translate(-161.947 -287.295)"/><path class="b" d="M201.306,331.916c3.546-1.74,6.335-4.67,9.229-7.358,6.747-6.267,15.12-11.71,24.327-11.588s18.651,7.916,17.576,17.061c-.673,5.726-5,10.319-6.868,15.772-2.668,7.783-.094,16.328-.7,24.533a26.377,26.377,0,0,1-7.742,17.211c-4.68,4.419-11.543,6.651-17.8,5.132-8.641-2.1-14.444-10.435-22.751-13.607-6.818-2.6-15.057-1.63-20.832-6.092-5.672-4.382-6.854-12.8-4.686-19.632,1.78-5.613,6.538-14.363,11.662-17.752C188.089,332.044,195.359,334.837,201.306,331.916Z" transform="translate(-168.44 -282.157)"/><path class="c" d="M189.823,293.218c5.409,1.782,6.068,9.278,10.087,13.313,2.6,2.614,6.391,3.539,9.851,4.819s7.084,3.4,8.05,6.958a10.289,10.289,0,0,1-1.113,7.071A21.392,21.392,0,0,1,197.055,337.1c-10.169-.422-26.615-10.871-28.264-21.752C167.526,306.992,180.91,290.282,189.823,293.218Z" transform="translate(-168.707 -286.178)"/></g><g transform="translate(186.325 295.533)"><path class="d" d="M189.528,382.7c.845-3.576,1.639-6.954,2.439-10.328.448-1.887,1.447-3.845,1.2-5.635-.239-1.72-1.781-3.256-2.723-4.888-14.913-25.826.024-58.7,29.454-64.825,24.083-5.014,47.6,10.117,52.692,33.9,5.042,23.56-10.472,47.175-34.184,52.059a44.407,44.407,0,0,1-30.9-4.5,3.3,3.3,0,0,0-2.8-.282c-4.693,1.461-9.413,2.833-14.123,4.235C190.314,382.512,190.044,382.568,189.528,382.7Zm21.389-66.437c-2.017-.106-3.656.218-4.958,1.569a14.9,14.9,0,0,0-3.806,15.348c1.2,4.247,3.767,7.729,6.484,11.125,7.815,9.767,17.363,16.976,29.832,19.968,4.949,1.187,9.545.8,13.853-2.175,3.456-2.383,4.539-5.678,4.283-9.582a2.026,2.026,0,0,0-.94-1.471c-3.783-1.7-7.606-3.314-11.431-4.924a2.08,2.08,0,0,0-2.758.958c-1.234,1.753-2.58,3.431-3.876,5.141a2.033,2.033,0,0,1-2.548.691,36.254,36.254,0,0,1-18.92-14.832c-.876-1.338-.766-1.816.212-3.07a32.142,32.142,0,0,0,3.024-4.391,3.2,3.2,0,0,0-.011-2.452c-1.315-3.1-2.856-6.1-4.18-9.188C214.3,316.932,213.083,315.707,210.916,316.26Z" transform="translate(-183.147 -293.779)"/><path d="M190.333,381.979c3.047-.972,5.887-1.876,8.726-2.783,1.731-.553,3.471-1.081,5.188-1.677a2.516,2.516,0,0,1,2.377.317,43.1,43.1,0,0,0,23.8,6.915,43.741,43.741,0,0,0,8.386-86.62,42.558,42.558,0,0,0-26.66,3.044c-.414.188-.818.4-1.243.56a1.526,1.526,0,0,1-2.05-.762,1.458,1.458,0,0,1,.818-2.016,69.69,69.69,0,0,1,7.443-2.859c13.68-3.82,26.651-2.04,38.543,5.741a45.366,45.366,0,0,1,20.864,32.851,46.785,46.785,0,0,1-37.61,52.3,45.768,45.768,0,0,1-32.9-5.935,2.271,2.271,0,0,0-2.083-.233c-4.937,1.612-9.887,3.18-14.832,4.763a1.249,1.249,0,0,1-.464.132,4.525,4.525,0,0,1-1.791-.3c-.653-.4-.547-1.167-.313-1.859,1.661-4.921,3.3-9.848,4.978-14.763a1.807,1.807,0,0,0-.208-1.792,46.737,46.737,0,0,1,5.917-59.19c.874-.881,1.779-.984,2.463-.3s.577,1.583-.307,2.469a43.639,43.639,0,0,0-5.119,55.9,3.034,3.034,0,0,1,.437,3.056c-1.393,3.948-2.679,7.935-4,11.908C190.59,381.153,190.5,381.46,190.333,381.979Z" transform="translate(-183.387 -294.16)"/><path d="M198.62,325.127a17.082,17.082,0,0,1,4.664-11.344,8.29,8.29,0,0,1,6.166-2.659c4.01-.082,4.793.449,6.309,4.125,1.2,2.91,2.339,5.849,3.641,8.715a4.735,4.735,0,0,1-.738,5.427c-.9,1.072-1.831,2.112-2.776,3.142a.923.923,0,0,0-.114,1.288,34.226,34.226,0,0,0,16.468,14.486c1.578.643,1.7.632,2.769-.75.915-1.182,1.771-2.407,2.658-3.611,1.365-1.852,3.132-2.47,5.216-1.527,3.665,1.659,7.272,3.452,10.886,5.218a2.869,2.869,0,0,1,1.661,2.765c.028,6.682-2.644,10.69-10.059,13.125-3.362,1.1-6.667.444-9.969-.44-12.781-3.423-22.379-11.192-29.94-21.791-2.443-3.425-4.787-6.9-5.889-11.022C199.123,328.593,198.93,326.845,198.62,325.127Zm3.053,0c.318,1.583.528,3.2.976,4.744,1.14,3.942,3.527,7.206,5.9,10.469,7.216,9.921,16.436,16.954,28.479,20.051a13.893,13.893,0,0,0,10.973-1.3c3.191-1.849,4.3-4.7,4.364-8.151a1.009,1.009,0,0,0-.374-.788c-3.383-1.653-6.784-3.266-10.184-4.883a1.25,1.25,0,0,0-1.738.554c-.913,1.3-1.843,2.6-2.835,3.843-1.716,2.157-3.473,2.577-6.023,1.543a37.138,37.138,0,0,1-17.974-15.666c-1.237-2.022-1.159-3.207.376-5.037.876-1.045,1.816-2.038,2.7-3.08a1.669,1.669,0,0,0,.427-1.869c-1.47-3.466-2.9-6.948-4.37-10.415a1.546,1.546,0,0,0-.658-.779,6.592,6.592,0,0,0-5.787,1.129A13.819,13.819,0,0,0,201.673,325.125Z" transform="translate(-180.339 -290.766)"/><path class="d" d="M201.164,324.63a13.819,13.819,0,0,1,4.247-9.635,6.592,6.592,0,0,1,5.787-1.129,1.546,1.546,0,0,1,.658.779c1.468,3.467,2.9,6.949,4.37,10.415a1.669,1.669,0,0,1-.427,1.869c-.881,1.042-1.821,2.034-2.7,3.08-1.535,1.83-1.613,3.015-.376,5.037A37.138,37.138,0,0,0,230.7,350.711c2.55,1.033,4.307.613,6.023-1.543.991-1.245,1.921-2.539,2.835-3.843a1.25,1.25,0,0,1,1.738-.554c3.4,1.618,6.8,3.231,10.184,4.883a1.009,1.009,0,0,1,.374.788c-.068,3.452-1.172,6.3-4.364,8.151a13.893,13.893,0,0,1-10.973,1.3c-12.043-3.1-21.263-10.129-28.479-20.051-2.373-3.263-4.76-6.526-5.9-10.469C201.692,327.828,201.482,326.212,201.164,324.63Z" transform="translate(-179.83 -290.271)"/></g></g></svg>