<svg height="512pt" viewBox="0 -40 512.00057 512" width="512pt" xmlns="http://www.w3.org/2000/svg"><path d="m510.445312 88.003906c-2.339843-6.4375-7.039062-11.578125-13.234374-14.46875l-71.773438-33.53125 6.265625-13.410156c4.363281-9.347656.328125-20.46875-9.019531-24.832031-9.347656-4.367188-20.46875-.332031-24.835938 9.019531l-68.488281 146.613281h-181.039063c-28.882812-38.792969-79.207031-55.40625-126.050781-40.503906l-.523437.167969c-9.839844 3.105468-15.292969 13.601562-12.1875 23.441406 3.109375 9.835938 13.601562 15.292969 23.441406 12.183594l.5625-.175782c27.722656-8.820312 57.238281-1.25 77.171875 18.4375-4.660156 5.960938-7.445313 13.453126-7.445313 21.585938v24.449219c0 27.4375 14.074219 51.644531 35.375 65.800781l-43.191406 115.371094c-3.617187 9.664062 1.28125 20.429687 10.945313 24.046875 2.160156.804687 4.371093 1.191406 6.546875 1.191406 7.570312 0 14.691406-4.636719 17.5-12.136719l43.339844-115.761718c2.777343.296874 5.597656.457031 8.453124.457031h115.164063c2.066406 0 4.113281-.105469 6.140625-.261719l43.265625 115.566406c2.808594 7.503906 9.929687 12.136719 17.5 12.136719 2.175781 0 4.386719-.386719 6.546875-1.191406 9.660156-3.617188 14.5625-14.382813 10.945312-24.046875l-42.730468-114.132813c22.371094-13.960937 37.300781-38.785156 37.300781-67.039062v-24.449219c0-9.789062-4.027344-18.652344-10.511719-25.03125l14.945313-31.992188 71.773437 33.527344.003906.003906c3.496094 1.632813 7.175782 2.40625 10.800782 2.40625 9.648437 0 18.910156-5.476562 23.257812-14.777343l22.921875-49.070313c2.894531-6.195312 3.203125-13.152344.863281-19.59375zm-328.1875 170.582032c-22.941406 0-41.605468-18.664063-41.605468-41.605469v-22.222657h198.375v22.222657c0 22.941406-18.664063 41.605469-41.609375 41.605469zm275.519532-128.367188-60.753906-28.382812 12.988281-27.800782 60.753906 28.382813zm0 0" fill="#f7b239"/><path d="m241.644531 432.695312c-60.910156 0-118.375-5.449218-161.808593-15.347656-53.722657-12.242187-79.835938-29.949218-79.835938-54.136718 0-10.316407 8.363281-18.683594 18.679688-18.683594 9.628906 0 17.554687 7.285156 18.574218 16.640625 3.441406 3.847656 19.382813 13.636719 61.523438 22.015625 39.40625 7.832031 90.144531 12.148437 142.867187 12.148437 52.71875 0 103.460938-4.316406 142.867188-12.148437 42.140625-8.378906 58.082031-18.167969 61.523437-22.015625 1.019532-9.359375 8.945313-16.640625 18.570313-16.640625 10.316406 0 18.683593 8.367187 18.683593 18.683594 0 24.1875-26.117187 41.898437-79.835937 54.136718-43.433594 9.898438-100.898437 15.347656-161.808594 15.347656zm0 0" fill="#d68e25"/></svg>